<svg width="40" height="40" viewBox="0 0 40 40" fill="none" xmlns="http://www.w3.org/2000/svg">
<path fill-rule="evenodd" clip-rule="evenodd" d="M4 15.1463C4 14.0224 4.58976 12.9809 5.55361 12.4026L18.3536 4.72355C19.367 4.11559 20.633 4.11559 21.6464 4.72355L34.4464 12.4026C35.4102 12.9809 36 14.0224 36 15.1463V32.5324C36 34.2995 34.5673 35.732 32.8 35.732H7.2C5.43269 35.732 4 34.2995 4 32.5324V15.1463ZM32.8 16.3239V32.5324H7.2V16.3239L20 24.8563L32.8 16.3239ZM30.6936 13.8826L20 7.46719L9.30639 13.8826L20 21.0108L30.6936 13.8826Z" fill="#32A336"/>
</svg>
