<svg xmlns="http://www.w3.org/2000/svg" fill="none" viewBox="0 0 44 41" height="41" width="44">
<path fill="white" d="M43.298 24.3805L38.1552 17.7141C37.9923 17.5041 37.7386 17.3808 37.4694 17.3808H26.3266V9.83113C26.3266 8.47952 25.1969 7.38123 23.8066 7.38123H21.0963C20.6643 3.64139 17.4294 0.714844 13.4694 0.714844C9.50945 0.714844 6.27459 3.64139 5.84259 7.38123H3.1323C1.74202 7.38123 0.612305 8.47952 0.612305 9.83113V33.2652C0.612305 34.6168 1.74202 35.715 3.1323 35.715H5.84259C6.26259 38.5349 8.74145 40.7148 11.7552 40.7148C14.7689 40.7148 17.2477 38.5349 17.6677 35.715H28.1266C28.5466 38.5349 31.0254 40.7148 34.0392 40.7148C37.0529 40.7148 39.5317 38.5349 39.9517 35.715H42.6106C43.0837 35.715 43.4677 35.3417 43.4677 34.8818V24.8822C43.4677 24.7022 43.4077 24.5255 43.2963 24.3822L43.298 24.3805ZM40.8963 24.0472H34.8963V19.0474H37.0392L40.8963 24.0472ZM13.4694 2.38144C16.778 2.38144 19.4694 4.998 19.4694 8.21453C19.4694 11.4311 16.778 14.0476 13.4694 14.0476C10.1609 14.0476 7.46945 11.4311 7.46945 8.21453C7.46945 4.998 10.1609 2.38144 13.4694 2.38144ZM3.1323 9.04783H5.84259C6.27459 12.7877 9.50945 15.7142 13.4694 15.7142C17.4294 15.7142 20.6643 12.7877 21.0963 9.04783H23.8066C24.2506 9.04783 24.6123 9.39948 24.6123 9.83113V30.7136H15.9414C14.8597 29.6853 13.3837 29.047 11.7552 29.047C10.1266 29.047 8.6523 29.6853 7.56888 30.7136H2.32659V9.83113C2.32659 9.39948 2.6883 9.04783 3.1323 9.04783ZM2.32659 33.2635V32.3802H6.35688C6.10145 32.8985 5.93002 33.4568 5.84088 34.0468H3.13059C2.68659 34.0468 2.32659 33.6951 2.32659 33.2635ZM11.7552 39.0466C9.39116 39.0466 7.46945 37.1783 7.46945 34.8801C7.46945 32.5819 9.39116 30.7136 11.7552 30.7136C14.1192 30.7136 16.0409 32.5819 16.0409 34.8801C16.0409 37.1783 14.1192 39.0466 11.7552 39.0466ZM17.6677 34.0468C17.5803 33.4568 17.4089 32.8985 17.1517 32.3802H24.6106V34.0468H17.666H17.6677ZM34.0409 39.0466C31.6769 39.0466 29.7552 37.1783 29.7552 34.8801C29.7552 32.5819 31.6769 30.7136 34.0409 30.7136C36.4049 30.7136 38.3266 32.5819 38.3266 34.8801C38.3266 37.1783 36.4049 39.0466 34.0409 39.0466ZM39.9534 34.0468C39.5334 31.2269 37.0546 29.047 34.0409 29.047C31.0272 29.047 28.5483 31.2269 28.1283 34.0468H26.3266V19.0474H33.1837V24.8805C33.1837 25.3405 33.5677 25.7138 34.0409 25.7138H41.7552V34.0468H39.9534Z"></path>
<path fill="white" d="M14.5769 10.4714C14.7449 10.6347 14.9643 10.7147 15.1837 10.7147C15.4032 10.7147 15.6226 10.6331 15.7906 10.4714C16.1249 10.1464 16.1249 9.61811 15.7906 9.29312L14.3266 7.86985V4.88164C14.3266 4.42166 13.9426 4.04834 13.4694 4.04834C12.9963 4.04834 12.6123 4.42166 12.6123 4.88164V8.21483C12.6123 8.43649 12.7032 8.64815 12.8626 8.80481L14.5769 10.4714Z"></path>
</svg>
