<svg width="40" height="40" viewBox="0 0 40 40" fill="none" xmlns="http://www.w3.org/2000/svg">
<path d="M4 8.8001C4 7.9514 4.33714 7.13747 4.93726 6.53736C5.53737 5.93724 6.35131 5.6001 7.2 5.6001H32.8C33.6487 5.6001 34.4626 5.93724 35.0627 6.53736C35.6629 7.13747 36 7.9514 36 8.8001V26.4001C36 27.2488 35.6629 28.0627 35.0627 28.6628C34.4626 29.263 33.6487 29.6001 32.8 29.6001H25.4624L21.1312 33.9313C20.8312 34.2313 20.4243 34.3998 20 34.3998C19.5757 34.3998 19.1688 34.2313 18.8688 33.9313L14.5376 29.6001H7.2C6.35131 29.6001 5.53737 29.263 4.93726 28.6628C4.33714 28.0627 4 27.2488 4 26.4001V8.8001ZM32.8 8.8001H7.2V26.4001H15.2C15.6243 26.4002 16.0312 26.5688 16.3312 26.8689L20 30.5377L23.6688 26.8689C23.9688 26.5688 24.3757 26.4002 24.8 26.4001H32.8V8.8001ZM10.4 14.4001C10.4 13.9758 10.5686 13.5688 10.8686 13.2687C11.1687 12.9687 11.5757 12.8001 12 12.8001H28C28.4243 12.8001 28.8313 12.9687 29.1314 13.2687C29.4314 13.5688 29.6 13.9758 29.6 14.4001C29.6 14.8244 29.4314 15.2314 29.1314 15.5315C28.8313 15.8315 28.4243 16.0001 28 16.0001H12C11.5757 16.0001 11.1687 15.8315 10.8686 15.5315C10.5686 15.2314 10.4 14.8244 10.4 14.4001ZM10.4 20.8001C10.4 20.3758 10.5686 19.9688 10.8686 19.6687C11.1687 19.3687 11.5757 19.2001 12 19.2001H21.6C22.0243 19.2001 22.4313 19.3687 22.7314 19.6687C23.0314 19.9688 23.2 20.3758 23.2 20.8001C23.2 21.2244 23.0314 21.6314 22.7314 21.9315C22.4313 22.2315 22.0243 22.4001 21.6 22.4001H12C11.5757 22.4001 11.1687 22.2315 10.8686 21.9315C10.5686 21.6314 10.4 21.2244 10.4 20.8001Z" fill="#32A336"/>
</svg>
