<svg width="141" height="20" viewBox="0 0 141 20" fill="none" xmlns="http://www.w3.org/2000/svg">
<path d="M73.9375 5.85938L79.5625 6.71875C80.0573 6.79688 80.3958 7.07031 80.5781 7.53906C80.7083 8.03385 80.6042 8.46354 80.2656 8.82812L76.2031 12.8125L77.1406 18.5547C77.2188 19.0495 77.0495 19.4531 76.6328 19.7656C76.2161 20.0521 75.7865 20.0781 75.3438 19.8438L70.3047 17.1875L65.3047 19.8438C64.8359 20.0781 64.3932 20.0521 63.9766 19.7656C63.5859 19.4531 63.4167 19.0495 63.4688 18.5547L64.4453 12.8125L60.3828 8.82812C60.0182 8.46354 59.9141 8.03385 60.0703 7.53906C60.2266 7.07031 60.5521 6.79688 61.0469 6.71875L66.6719 5.85938L69.1719 0.703125C69.4323 0.260417 69.8099 0.0260417 70.3047 0C70.8255 0.0260417 71.2031 0.260417 71.4375 0.703125L73.9375 5.85938Z" fill="black"/>
<path d="M103.938 5.85938L109.562 6.71875C110.057 6.79688 110.396 7.07031 110.578 7.53906C110.708 8.03385 110.604 8.46354 110.266 8.82812L106.203 12.8125L107.141 18.5547C107.219 19.0495 107.049 19.4531 106.633 19.7656C106.216 20.0521 105.786 20.0781 105.344 19.8438L100.305 17.1875L95.3047 19.8438C94.8359 20.0781 94.3932 20.0521 93.9766 19.7656C93.5859 19.4531 93.4167 19.0495 93.4688 18.5547L94.4453 12.8125L90.3828 8.82812C90.0182 8.46354 89.9141 8.03385 90.0703 7.53906C90.2266 7.07031 90.5521 6.79688 91.0469 6.71875L96.6719 5.85938L99.1719 0.703125C99.4323 0.260417 99.8099 0.0260417 100.305 0C100.826 0.0260417 101.203 0.260417 101.438 0.703125L103.938 5.85938Z" fill="black"/>
<path d="M133.938 5.85938L139.562 6.71875C140.057 6.79688 140.396 7.07031 140.578 7.53906C140.708 8.03385 140.604 8.46354 140.266 8.82812L136.203 12.8125L137.141 18.5547C137.219 19.0495 137.049 19.4531 136.633 19.7656C136.216 20.0521 135.786 20.0781 135.344 19.8438L130.305 17.1875L125.305 19.8438C124.836 20.0781 124.393 20.0521 123.977 19.7656C123.586 19.4531 123.417 19.0495 123.469 18.5547L124.445 12.8125L120.383 8.82812C120.018 8.46354 119.914 8.03385 120.07 7.53906C120.227 7.07031 120.552 6.79688 121.047 6.71875L126.672 5.85938L129.172 0.703125C129.432 0.260417 129.81 0.0260417 130.305 0C130.826 0.0260417 131.203 0.260417 131.438 0.703125L133.938 5.85938Z" fill="black"/>
<path d="M43.9375 5.85938L49.5625 6.71875C50.0573 6.79688 50.3958 7.07031 50.5781 7.53906C50.7083 8.03385 50.6042 8.46354 50.2656 8.82812L46.2031 12.8125L47.1406 18.5547C47.2188 19.0495 47.0495 19.4531 46.6328 19.7656C46.2161 20.0521 45.7865 20.0781 45.3438 19.8438L40.3047 17.1875L35.3047 19.8438C34.8359 20.0781 34.3932 20.0521 33.9766 19.7656C33.5859 19.4531 33.4167 19.0495 33.4688 18.5547L34.4453 12.8125L30.3828 8.82812C30.0182 8.46354 29.9141 8.03385 30.0703 7.53906C30.2266 7.07031 30.5521 6.79688 31.0469 6.71875L36.6719 5.85938L39.1719 0.703125C39.4323 0.260417 39.8099 0.0260417 40.3047 0C40.8255 0.0260417 41.2031 0.260417 41.4375 0.703125L43.9375 5.85938Z" fill="black"/>
<path d="M13.9375 5.85938L19.5625 6.71875C20.0573 6.79688 20.3958 7.07031 20.5781 7.53906C20.7083 8.03385 20.6042 8.46354 20.2656 8.82812L16.2031 12.8125L17.1406 18.5547C17.2188 19.0495 17.0495 19.4531 16.6328 19.7656C16.2161 20.0521 15.7865 20.0781 15.3438 19.8438L10.3047 17.1875L5.30469 19.8438C4.83594 20.0781 4.39323 20.0521 3.97656 19.7656C3.58594 19.4531 3.41667 19.0495 3.46875 18.5547L4.44531 12.8125L0.382812 8.82812C0.0182292 8.46354 -0.0859375 8.03385 0.0703125 7.53906C0.226562 7.07031 0.552083 6.79688 1.04688 6.71875L6.67188 5.85938L9.17188 0.703125C9.43229 0.260417 9.8099 0.0260417 10.3047 0C10.8255 0.0260417 11.2031 0.260417 11.4375 0.703125L13.9375 5.85938Z" fill="black"/>
</svg>
