<svg xmlns="http://www.w3.org/2000/svg" fill="none" viewBox="0 0 33 41" height="41" width="33">
<path fill="#32A336" d="M28.5408 27.0293C28.3408 26.5293 27.7408 26.2293 27.2408 26.4293C26.7408 26.6293 26.4408 27.2293 26.6408 27.7293L30.0408 36.3293L27.8408 35.7293C27.0408 35.4293 26.0408 35.8293 25.6408 36.5293L24.4408 38.4293L21.5408 30.9293C21.3408 30.4293 20.7408 30.1293 20.2408 30.3293C19.7408 30.5293 19.4408 31.1293 19.6408 31.6293L22.5408 39.1293C22.8408 39.8293 23.4408 40.3293 24.2408 40.4293C24.3408 40.4293 24.3408 40.4293 24.4408 40.4293C25.1408 40.4293 25.7408 40.0293 26.1408 39.5293L27.3408 37.6293L29.5408 38.2293C30.2408 38.4293 31.0408 38.2293 31.5408 37.6293C32.0408 37.0293 32.2408 36.2293 31.9408 35.5293L28.5408 27.0293Z"></path>
<path fill="#32A336" d="M11.841 30.4292C11.341 30.2292 10.741 30.5292 10.541 31.0292L7.64095 38.4292L6.44095 36.5292C6.04095 35.8292 5.04095 35.4292 4.24095 35.6292L2.04095 36.2292L5.34095 27.6292C5.54095 27.1292 5.24095 26.5292 4.74095 26.3292C4.24095 26.1292 3.64095 26.4292 3.44095 26.9292L0.140954 35.5292C-0.159046 36.2292 0.0409537 37.0292 0.540954 37.6292C1.04095 38.2292 1.84095 38.4292 2.54095 38.2292L4.74095 37.6292L5.94095 39.5292C6.34095 40.1292 6.94095 40.4292 7.64095 40.4292C7.74095 40.4292 7.74095 40.4292 7.84095 40.4292C8.64095 40.3292 9.24095 39.8292 9.54095 39.1292L12.441 31.6292C12.641 31.2292 12.341 30.6292 11.841 30.4292Z"></path>
<path fill="#32A336" d="M30.541 14.9292C30.541 6.9292 24.041 0.429199 16.041 0.429199C8.04102 0.429199 1.54102 6.9292 1.54102 14.9292C1.54102 22.9292 8.04102 29.4292 16.041 29.4292C24.041 29.4292 30.541 22.9292 30.541 14.9292ZM16.041 27.4292C9.14102 27.4292 3.54102 21.8292 3.54102 14.9292C3.54102 8.0292 9.14102 2.4292 16.041 2.4292C22.941 2.4292 28.541 8.0292 28.541 14.9292C28.541 21.8292 22.941 27.4292 16.041 27.4292Z"></path>
<path fill="#32A336" d="M16.041 5.4292C10.841 5.4292 6.54102 9.7292 6.54102 14.9292C6.54102 20.1292 10.841 24.4292 16.041 24.4292C21.241 24.4292 25.541 20.1292 25.541 14.9292C25.541 9.7292 21.241 5.4292 16.041 5.4292ZM16.041 22.4292C11.941 22.4292 8.54102 19.0292 8.54102 14.9292C8.54102 10.8292 11.941 7.4292 16.041 7.4292C20.141 7.4292 23.541 10.8292 23.541 14.9292C23.541 19.0292 20.141 22.4292 16.041 22.4292Z"></path>
<path fill="#32A336" d="M19.341 12.2292L15.041 16.5292L12.741 14.2292C12.341 13.8292 11.741 13.8292 11.341 14.2292C10.941 14.6292 10.941 15.2292 11.341 15.6292L14.341 18.6292C14.541 18.8292 14.841 18.9292 15.041 18.9292C15.241 18.9292 15.541 18.8292 15.741 18.6292L20.741 13.6292C21.141 13.2292 21.141 12.6292 20.741 12.2292C20.341 11.8292 19.741 11.8292 19.341 12.2292Z"></path>
</svg>
