<svg width="40" height="40" viewBox="0 0 40 40" fill="none" xmlns="http://www.w3.org/2000/svg">
<path d="M20 7.11089C18.5045 7.11089 17.0702 7.70499 16.0127 8.76249C14.9552 9.81998 14.3611 11.2543 14.3611 12.7498C14.3611 14.2453 14.9552 15.6796 16.0127 16.7371C17.0702 17.7946 18.5045 18.3887 20 18.3887C21.4955 18.3887 22.9298 17.7946 23.9873 16.7371C25.0448 15.6796 25.6389 14.2453 25.6389 12.7498C25.6389 11.2543 25.0448 9.81998 23.9873 8.76249C22.9298 7.70499 21.4955 7.11089 20 7.11089ZM11.1389 12.7498C11.1389 10.3997 12.0725 8.14581 13.7342 6.48403C15.396 4.82225 17.6499 3.88867 20 3.88867C22.3501 3.88867 24.604 4.82225 26.2658 6.48403C27.9275 8.14581 28.8611 10.3997 28.8611 12.7498C28.8611 15.0999 27.9275 17.3538 26.2658 19.0155C24.604 20.6773 22.3501 21.6109 20 21.6109C17.6499 21.6109 15.396 20.6773 13.7342 19.0155C12.0725 17.3538 11.1389 15.0999 11.1389 12.7498ZM5.5 31.2776C5.5 29.1411 6.34871 27.0921 7.85942 25.5814C9.37013 24.0707 11.4191 23.222 13.5556 23.222H26.4444C28.5809 23.222 30.6299 24.0707 32.1406 25.5814C33.6513 27.0921 34.5 29.1411 34.5 31.2776V36.1109H5.5V31.2776ZM13.5556 26.4442C12.2737 26.4442 11.0443 26.9535 10.1379 27.8599C9.23145 28.7663 8.72222 29.9957 8.72222 31.2776V32.8887H31.2778V31.2776C31.2778 29.9957 30.7686 28.7663 29.8621 27.8599C28.9557 26.9535 27.7263 26.4442 26.4444 26.4442H13.5556Z" fill="#32A336"/>
</svg>
