<svg xmlns="http://www.w3.org/2000/svg" fill="none" viewBox="0 0 40 40" height="40" width="40">
<path fill="#32A336" d="M20 4C23.7875 4 27.4199 5.50458 30.0981 8.18275C32.7763 10.8609 34.2808 14.4933 34.2808 18.2808C34.2808 23.1585 31.6214 27.1508 28.8192 30.0149C27.4192 31.4303 25.8915 32.7136 24.2557 33.8485L23.5798 34.3086L23.2624 34.5196L22.6642 34.9005L22.131 35.2258L21.471 35.6098C21.0229 35.8655 20.5159 36 20 36C19.4841 36 18.9772 35.8655 18.5291 35.6098L17.869 35.2258L17.0439 34.718L16.7393 34.5196L16.0887 34.0865C14.3239 32.8925 12.6802 31.5288 11.1809 30.0149C8.37864 27.1492 5.71924 23.1585 5.71924 18.2808C5.71924 14.4933 7.22382 10.8609 9.90199 8.18275C12.5802 5.50458 16.2125 4 20 4ZM20 7.17351C17.0542 7.17351 14.229 8.34374 12.146 10.4268C10.063 12.5098 8.89275 15.335 8.89275 18.2808C8.89275 21.9652 10.9111 25.1991 13.4483 27.795C14.5393 28.8994 15.7184 29.9129 16.9741 30.8257L17.7008 31.343C17.9357 31.5069 18.1615 31.6593 18.3784 31.8L18.9972 32.1966L19.5415 32.5283L20 32.7964L20.722 32.3696L21.3043 32.0046C21.6143 31.8079 21.9459 31.5873 22.2992 31.343L23.026 30.8257C24.2816 29.9129 25.4608 28.8994 26.5517 27.795C29.089 25.2006 31.1073 21.9652 31.1073 18.2808C31.1073 15.335 29.9371 12.5098 27.8541 10.4268C25.7711 8.34374 22.9459 7.17351 20 7.17351ZM20 11.9338C21.6834 11.9338 23.2978 12.6025 24.4881 13.7928C25.6784 14.9831 26.3471 16.5975 26.3471 18.2808C26.3471 19.9641 25.6784 21.5785 24.4881 22.7688C23.2978 23.9591 21.6834 24.6278 20 24.6278C18.3167 24.6278 16.7023 23.9591 15.512 22.7688C14.3217 21.5785 13.653 19.9641 13.653 18.2808C13.653 16.5975 14.3217 14.9831 15.512 13.7928C16.7023 12.6025 18.3167 11.9338 20 11.9338ZM20 15.1073C19.1584 15.1073 18.3512 15.4416 17.756 16.0368C17.1609 16.6319 16.8265 17.4391 16.8265 18.2808C16.8265 19.1225 17.1609 19.9297 17.756 20.5248C18.3512 21.12 19.1584 21.4543 20 21.4543C20.8417 21.4543 21.6489 21.12 22.244 20.5248C22.8392 19.9297 23.1735 19.1225 23.1735 18.2808C23.1735 17.4391 22.8392 16.6319 22.244 16.0368C21.6489 15.4416 20.8417 15.1073 20 15.1073Z" clip-rule="evenodd" fill-rule="evenodd"></path>
</svg>
