<svg xmlns="http://www.w3.org/2000/svg" fill="none" viewBox="0 0 40 40" height="40" width="40">
<path fill="white" d="M28.1228 30.4014C29.3692 30.4014 30.3836 29.3869 30.3836 28.1405V11.86C30.3836 10.6136 29.3692 9.59912 28.1228 9.59912H11.8439C10.5974 9.59912 9.58301 10.6136 9.58301 11.86V28.1405C9.58301 29.3869 10.5974 30.4014 11.8439 30.4014H28.1228ZM28.7836 11.8616V14.4009H23.9835V11.2008H28.1228C28.4876 11.2008 28.7836 11.4968 28.7836 11.8616ZM17.5833 11.2008H22.3834V17.1066L20.3417 16.0857C20.1161 15.9737 19.8505 15.9737 19.6265 16.0857L17.5849 17.1066V11.2008H17.5833ZM11.8439 11.2008H15.9832V14.4009H11.1831V11.8616C11.1831 11.4968 11.4791 11.2008 11.8439 11.2008ZM11.1831 28.1405V16.0009H15.9832V18.401C15.9832 18.6778 16.1272 18.9354 16.3624 19.081C16.5976 19.2282 16.892 19.2394 17.14 19.1162L19.9817 17.6954L22.8234 19.1162C22.9354 19.1722 23.0586 19.201 23.1818 19.201C23.329 19.201 23.4746 19.161 23.6026 19.081C23.8378 18.9354 23.9819 18.6778 23.9819 18.401V16.0009H28.782V28.1405C28.782 28.5053 28.4844 28.8013 28.1212 28.8013H11.8423C11.4775 28.8013 11.1815 28.5053 11.1815 28.1405H11.1831Z"></path>
<path fill="white" d="M16.7834 27.2016H23.1836C23.6252 27.2016 23.9836 26.8432 23.9836 26.4016C23.9836 25.96 23.6252 25.6016 23.1836 25.6016H16.7834C16.3418 25.6016 15.9834 25.96 15.9834 26.4016C15.9834 26.8432 16.3418 27.2016 16.7834 27.2016Z"></path>
<path fill="white" d="M36.2716 8.40539L38.9965 8.855C39.4269 8.9318 39.8429 8.6326 39.9149 8.19578C39.9869 7.75897 39.6909 7.34776 39.2557 7.27575L34.5195 6.49333C34.3195 6.45973 34.0955 6.50773 33.9243 6.63253C33.7515 6.75574 33.6347 6.94294 33.6011 7.15255L32.8203 11.8871C32.7483 12.3223 33.0443 12.7351 33.4795 12.8071C33.5227 12.8151 33.5675 12.8183 33.6107 12.8183C33.9947 12.8183 34.3339 12.5399 34.3979 12.1495L34.8843 9.20701C38.6909 14.4808 39.4605 21.505 36.7884 27.4956C32.6555 36.7631 21.7543 40.9376 12.4885 36.8063C12.0868 36.6239 11.6116 36.8063 11.4324 37.2111C11.2516 37.6143 11.4324 38.0879 11.8372 38.2671C14.4757 39.4431 17.2358 40 19.9543 40C27.6121 40 34.934 35.579 38.2525 28.1468C41.1325 21.6858 40.3261 14.1192 36.2732 8.40379L36.2716 8.40539Z"></path>
<path fill="white" d="M13.3995 2.81824C17.9884 1.05978 22.9918 1.19419 27.4767 3.19585C27.8799 3.37666 28.3551 3.19585 28.5343 2.79104C28.7135 2.38782 28.5343 1.91421 28.1295 1.735C18.0524 -2.75953 6.20723 1.78141 1.71589 11.8553C-1.1658 18.3163 -0.35937 25.8813 3.69515 31.5983L0.970271 31.1487C0.523857 31.0671 0.122244 31.3727 0.0502422 31.8079C-0.02176 32.2431 0.272649 32.656 0.709463 32.728L5.44561 33.5104C5.49041 33.5184 5.53361 33.5216 5.57681 33.5216C5.96082 33.5216 6.30003 33.2432 6.36564 32.8528L7.14806 28.1182C7.22006 27.683 6.92565 27.2702 6.48884 27.1982C6.04083 27.123 5.64081 27.4222 5.56881 27.8574L5.0824 30.7999C1.27588 25.5261 0.504656 18.5019 3.17674 12.5113C5.1784 8.0232 8.80891 4.58149 13.3979 2.82304L13.3995 2.81824Z"></path>
</svg>
