<?xml version="1.0" encoding="UTF-8"?>
<svg xmlns="http://www.w3.org/2000/svg" version="1.1" viewBox="0 0 40 40">
  <defs>
    <style>
      .cls-1 {
        fill: #32a336;
      }
    </style>
  </defs>
  <!-- Generator: Adobe Illustrator 28.6.0, SVG Export Plug-In . SVG Version: 1.2.0 Build 709)  -->
  <g>
    <g id="Capa_1">
      <path class="cls-1" d="M30.7,36s0,0-.1,0c-6.9-.4-13.4-3.4-18.3-8.3-4.9-4.9-7.8-11.4-8.3-18.3,0,0,0,0,0-.1,0-1.4.6-2.7,1.6-3.7s2.3-1.6,3.7-1.6h6.6c.8,0,1.6.5,1.9,1.3l3.3,8.2c.4.9,0,2-.8,2.5l-2.4,1.5c1.2,1.9,2.9,3.6,4.8,4.8l1.5-2.4c.5-.8,1.5-1.2,2.5-.8l8.2,3.3c.8.3,1.3,1,1.3,1.9v6.6c0,1.4-.6,2.7-1.6,3.7s-2.3,1.6-3.7,1.6ZM8,9.2c.4,5.9,2.9,11.5,7.1,15.7,4.2,4.2,9.8,6.7,15.7,7.1.3,0,.6-.1.9-.4.2-.2.4-.6.4-.9v-5.2l-5.4-2.2-1.6,2.7c-.5.9-1.7,1.2-2.6.8-3.9-1.9-7.2-5.2-9.1-9.1-.5-.9-.1-2.1.8-2.6l2.7-1.6-2.2-5.4h-5.2c-.3,0-.7.1-.9.4-.2.2-.4.5-.4.9Z"/>
    </g>
  </g>
</svg>