<svg xmlns="http://www.w3.org/2000/svg" fill="none" viewBox="0 0 200 59" height="59" width="200">
<path fill="#00A804" d="M6.55933 49.2726H2.81543V46.2417H13.7619V49.2726H10.018V58.7229H6.55933V49.2726Z"></path>
<path fill="#00A804" d="M19.4463 46.2417H25.3473C27.2555 46.2417 28.5752 46.7397 29.4127 47.5976C30.1438 48.3106 30.5173 49.2726 30.5173 50.504V50.5402C30.5173 52.4461 29.501 53.7137 27.9504 54.3724L30.927 58.7229H26.9341L24.4216 54.9428H22.905V58.7229H19.4463V46.244V46.2417ZM25.1866 52.231C26.3637 52.231 27.0405 51.6606 27.0405 50.7507V50.7145C27.0405 49.7344 26.3275 49.2341 25.1685 49.2341H22.905V52.2288H25.1866V52.231Z"></path>
<path fill="#00A804" d="M40.5332 46.1538H43.8674L49.18 58.7233H45.4723L44.5646 56.4937H39.7501L38.8582 58.7233H35.2207L40.5355 46.1538H40.5332ZM43.5641 53.8023L42.172 50.2553L40.7641 53.8023H43.5641Z"></path>
<path fill="#00A804" d="M53.3314 52.5185V52.4823C53.3314 48.8447 56.1314 45.9927 59.9092 45.9927C62.458 45.9927 64.099 47.0633 65.2037 48.5958L62.6006 50.6103C61.8876 49.7185 61.0682 49.1481 59.873 49.1481C58.1256 49.1481 56.8942 50.6284 56.8942 52.446V52.4823C56.8942 54.3542 58.1256 55.8165 59.873 55.8165C61.1745 55.8165 61.9419 55.2098 62.6889 54.3021L65.2919 56.156C64.1149 57.7789 62.5281 58.9718 59.7644 58.9718C56.1993 58.9718 53.3291 56.2443 53.3291 52.5185"></path>
<path fill="#00A804" d="M73.991 49.2726H70.2471V46.2417H81.1936V49.2726H77.4497V58.7229H73.991V49.2726Z"></path>
<path fill="#00A804" d="M85.915 52.5185V52.4823C85.915 48.8991 88.8033 45.9927 92.6536 45.9927C96.5039 45.9927 99.3582 48.8628 99.3582 52.446V52.4823C99.3582 56.0654 96.4699 58.9718 92.6197 58.9718C88.7694 58.9718 85.9173 56.1017 85.9173 52.5185M95.8294 52.5185V52.4823C95.8294 50.6827 94.5278 49.1118 92.6197 49.1118C90.7115 49.1118 89.4643 50.6443 89.4643 52.446V52.4823C89.4643 54.2818 90.7658 55.8504 92.6536 55.8504C94.5414 55.8504 95.8271 54.318 95.8271 52.5162"></path>
<path fill="#00A804" d="M105.325 46.2417H110.674C113.829 46.2417 115.862 47.8624 115.862 50.6284V50.6647C115.862 53.6073 113.598 55.1578 110.495 55.1578H108.784V58.7229H105.325V46.244V46.2417ZM110.423 52.4461C111.654 52.4461 112.401 51.8055 112.401 50.8231V50.7869C112.401 49.7162 111.654 49.1458 110.405 49.1458H108.782V52.4438H110.423V52.4461Z"></path>
<path fill="#00A804" d="M124.559 46.1538H127.893L133.208 58.7233H129.5L128.59 56.4937H123.775L122.884 58.7233H119.246L124.559 46.1538ZM127.59 53.8023L126.2 50.2553L124.792 53.8023H127.59Z"></path>
<path fill="#00A804" d="M138.586 46.2417H144.487C146.395 46.2417 147.715 46.7397 148.552 47.5976C149.283 48.3106 149.657 49.2726 149.657 50.504V50.5402C149.657 52.4461 148.641 53.7137 147.09 54.3724L150.067 58.7229H146.074L143.561 54.9428H142.045V58.7229H138.586V46.244V46.2417ZM144.326 52.231C145.503 52.231 146.18 51.6606 146.18 50.7507V50.7145C146.18 49.7344 145.467 49.2341 144.308 49.2341H142.045V52.2288H144.326V52.231Z"></path>
<path fill="#00A804" d="M158.62 49.2726H154.876V46.2417H165.822V49.2726H162.081V58.7229H158.62V49.2726Z"></path>
<path fill="#00A804" d="M171.507 46.2417H181.546V49.1843H174.932V51.0744H180.921V53.8019H174.932V55.7803H181.634V58.7229H171.507V46.2417Z"></path>
<path fill="#00A804" d="M186.622 56.8692L188.548 54.5695C189.777 55.5496 191.151 56.0657 192.596 56.0657C193.521 56.0657 194.022 55.7465 194.022 55.2101V55.1738C194.022 54.6555 193.612 54.3703 191.917 53.9787C189.261 53.3721 187.211 52.6251 187.211 50.056V50.0197C187.211 47.7019 189.046 46.0269 192.043 46.0269C194.164 46.0269 195.823 46.5973 197.177 47.686L195.448 50.1284C194.307 49.3271 193.057 48.8993 191.953 48.8993C191.115 48.8993 190.706 49.2547 190.706 49.7006V49.7368C190.706 50.3072 191.133 50.5562 192.863 50.9478C195.733 51.5725 197.517 52.4983 197.517 54.8343V54.8705C197.517 57.4193 195.502 58.9358 192.471 58.9358C190.26 58.9358 188.157 58.2409 186.624 56.867"></path>
<path fill="white" d="M19.7653 35.6576L14.1336 16.2975L8.07859 35.6735H0L9.29185 5.93048L5.89427 0H19.2877L24.4101 17.6534L22.5607 21.0147C28.1042 15.8584 33.2967 10.4893 38.1543 4.90963C39.5803 3.3093 41.0765 1.67276 42.6067 0H50.6853L39.526 35.6757H31.4474L37.5205 16.2998L19.7607 35.6599L19.7653 35.6576Z"></path>
<path fill="white" d="M60.1828 24.7996L66.4822 15.4194H80.4913L81.777 11.2998C82.0577 10.5438 82.3225 9.40068 81.4782 9.40068L59.1778 9.34862L62.9964 10.7022C62.9081 10.915 62.8379 11.1074 62.7859 11.2839L55.1645 35.6782H47.0859L54.7231 11.2839C55.1442 9.92809 55.7078 8.6605 56.4117 7.44724L52.1359 0.00244141H84.414C86.4377 0.00244141 87.9361 0.584173 88.9027 1.74537C89.8715 2.90657 90.3989 4.35071 90.5211 6.05742C90.6433 7.76414 90.4147 9.50707 89.8692 11.2839L82.2478 35.6782H74.1511L77.5646 24.8018H60.176L60.1828 24.7996Z"></path>
<path fill="white" d="M114.361 23.867L118.216 22.5111L106.178 22.5292L109.576 13.1468H125.803L118.745 35.6759H95.3019C92.2054 35.6759 90.0912 34.5328 88.9481 32.2625C87.8209 29.9921 87.7326 27.2804 88.6675 24.1318L92.6083 11.5488C93.0655 10.0865 93.6993 8.71483 94.5097 7.42913L90.2497 0.00244141H129.902L126.964 9.40068H120.592C112.795 9.41879 104.999 9.40068 97.201 9.34862L101.038 10.7045L96.7619 24.1341C96.2503 25.7525 96.9022 26.298 98.24 26.298H113.605L114.361 23.8693V23.867Z"></path>
<path fill="white" d="M139.396 24.7996L145.695 15.4194H159.704L160.99 11.2998C161.271 10.5438 161.535 9.40068 160.691 9.40068L138.391 9.34862L142.209 10.7022C142.121 10.915 142.051 11.1074 141.999 11.2839L134.377 35.6782H126.299L133.936 11.2839C134.357 9.92809 134.921 8.6605 135.625 7.44724L131.349 0.00244141H163.627C165.651 0.00244141 167.149 0.584173 168.116 1.74537C169.084 2.90657 169.612 4.35071 169.734 6.05742C169.856 7.76414 169.628 9.50707 169.082 11.2839L161.461 35.6782H153.364L156.777 24.8018H139.389L139.396 24.7996Z"></path>
<path fill="white" d="M200 26.2933L197.059 35.6757H166.313L175.499 6.2836L171.891 0H185.531L177.735 24.9578L173.881 26.3114L177.541 26.2933H200Z"></path>
</svg>
